<svg width="92" height="33" viewBox="0 0 92 33" fill="none" xmlns="http://www.w3.org/2000/svg">
<g filter="url(#filter0_d_1_3)">
<path d="M12.024 23.488C13.1333 23.488 14.1893 23.2 15.192 22.624C16.1947 22.048 17.0267 21.2587 17.688 20.256V21.888C16.8987 22.7627 16.0347 23.4027 15.096 23.808C14.1573 24.192 13.0907 24.384 11.896 24.384C10.5733 24.384 9.32533 24.032 8.152 23.328C7 22.624 6.072 21.6853 5.368 20.512C4.68533 19.3387 4.344 18.0907 4.344 16.768C4.344 15.3387 4.68533 14.0587 5.368 12.928C6.05067 11.776 6.97867 10.88 8.152 10.24C9.34667 9.6 10.6693 9.28 12.12 9.28C14.3387 9.28 16.2267 10.1547 17.784 11.904L7.736 21.824C8.44 22.4 9.12267 22.8267 9.784 23.104C10.4453 23.36 11.192 23.488 12.024 23.488ZM5.368 16.672C5.368 18.4427 5.95467 19.9573 7.128 21.216L16.504 11.904C15.8 11.2853 15.1173 10.848 14.456 10.592C13.7947 10.3147 13.0053 10.176 12.088 10.176C10.7867 10.176 9.624 10.464 8.6 11.04C7.59733 11.5947 6.808 12.3627 6.232 13.344C5.656 14.3253 5.368 15.4347 5.368 16.672ZM28.5368 24.352C27.2354 24.352 25.9768 24 24.7608 23.296C23.5661 22.592 22.6488 21.664 22.0088 20.512V24H20.9848V-1.90735e-06H22.0088V13.248C22.5848 12.032 23.4808 11.0613 24.6968 10.336C25.9128 9.61067 27.1928 9.248 28.5368 9.248C29.9234 9.248 31.1928 9.58933 32.3448 10.272C33.5181 10.9547 34.4461 11.872 35.1287 13.024C35.8114 14.176 36.1528 15.4347 36.1528 16.8C36.1528 18.1653 35.8114 19.424 35.1287 20.576C34.4461 21.728 33.5181 22.6453 32.3448 23.328C31.1928 24.0107 29.9234 24.352 28.5368 24.352ZM28.6008 23.456C29.7741 23.456 30.8621 23.1573 31.8648 22.56C32.8674 21.9413 33.6568 21.1307 34.2328 20.128C34.8301 19.104 35.1287 17.9947 35.1287 16.8C35.1287 15.6267 34.8301 14.528 34.2328 13.504C33.6354 12.48 32.8354 11.6693 31.8328 11.072C30.8301 10.4533 29.7421 10.144 28.5688 10.144C27.3954 10.144 26.2968 10.4533 25.2728 11.072C24.2701 11.6907 23.4594 12.512 22.8408 13.536C22.2434 14.56 21.9448 15.6587 21.9448 16.832C21.9448 18.0053 22.2434 19.104 22.8408 20.128C23.4594 21.1307 24.2808 21.9413 25.3048 22.56C26.3288 23.1573 27.4274 23.456 28.6008 23.456ZM40.6078 6.304C40.3091 6.304 40.0424 6.19733 39.8078 5.984C39.5944 5.77067 39.4878 5.504 39.4878 5.184C39.4878 4.88533 39.5944 4.62933 39.8078 4.416C40.0424 4.20267 40.3091 4.096 40.6078 4.096C40.9064 4.096 41.1624 4.20267 41.3758 4.416C41.6104 4.62933 41.7278 4.88533 41.7278 5.184C41.7278 5.504 41.6104 5.77067 41.3758 5.984C41.1624 6.19733 40.9064 6.304 40.6078 6.304ZM40.0958 9.6H41.1198V24H40.0958V9.6ZM52.675 24.352C51.2883 24.352 50.0083 24.0107 48.835 23.328C47.683 22.6453 46.7657 21.728 46.083 20.576C45.4003 19.424 45.059 18.1653 45.059 16.8C45.059 15.4347 45.4003 14.176 46.083 13.024C46.7657 11.872 47.683 10.9547 48.835 10.272C50.0083 9.58933 51.2883 9.248 52.675 9.248C54.019 9.248 55.299 9.61067 56.515 10.336C57.731 11.04 58.627 11.968 59.203 13.12V-1.90735e-06H60.227V24H59.203V20.512C58.563 21.664 57.635 22.592 56.419 23.296C55.2243 24 53.9763 24.352 52.675 24.352ZM52.643 23.456C53.8163 23.456 54.9043 23.1573 55.907 22.56C56.931 21.9413 57.7417 21.1307 58.339 20.128C58.9577 19.104 59.267 18.0053 59.267 16.832C59.267 15.6587 58.9577 14.56 58.339 13.536C57.7417 12.512 56.931 11.6907 55.907 11.072C54.9043 10.4533 53.8163 10.144 52.643 10.144C51.4697 10.144 50.3817 10.4533 49.379 11.072C48.3763 11.6693 47.5763 12.48 46.979 13.504C46.3817 14.528 46.083 15.6267 46.083 16.8C46.083 17.9947 46.371 19.104 46.947 20.128C47.5443 21.1307 48.3443 21.9413 49.347 22.56C50.371 23.1573 51.4697 23.456 52.643 23.456ZM71.274 23.488C72.3833 23.488 73.4393 23.2 74.442 22.624C75.4447 22.048 76.2767 21.2587 76.938 20.256V21.888C76.1487 22.7627 75.2847 23.4027 74.346 23.808C73.4073 24.192 72.3407 24.384 71.146 24.384C69.8233 24.384 68.5753 24.032 67.402 23.328C66.25 22.624 65.322 21.6853 64.618 20.512C63.9353 19.3387 63.594 18.0907 63.594 16.768C63.594 15.3387 63.9353 14.0587 64.618 12.928C65.3007 11.776 66.2287 10.88 67.402 10.24C68.5967 9.6 69.9193 9.28 71.37 9.28C73.5887 9.28 75.4767 10.1547 77.034 11.904L66.986 21.824C67.69 22.4 68.3727 22.8267 69.034 23.104C69.6953 23.36 70.442 23.488 71.274 23.488ZM64.618 16.672C64.618 18.4427 65.2047 19.9573 66.378 21.216L75.754 11.904C75.05 11.2853 74.3673 10.848 73.706 10.592C73.0447 10.3147 72.2553 10.176 71.338 10.176C70.0367 10.176 68.874 10.464 67.85 11.04C66.8473 11.5947 66.058 12.3627 65.482 13.344C64.906 14.3253 64.618 15.4347 64.618 16.672ZM80.2348 9.6H81.2588V12.928C81.6854 11.8827 82.3041 11.0613 83.1148 10.464C83.9468 9.86667 84.8854 9.568 85.9308 9.568C86.5921 9.568 87.2641 9.70667 87.9468 9.984V11.168C87.3281 10.6987 86.6348 10.464 85.8668 10.464C85.0988 10.464 84.3521 10.6987 83.6268 11.168C82.9228 11.6373 82.3468 12.2667 81.8988 13.056C81.4721 13.8453 81.2588 14.688 81.2588 15.584V24H80.2348V9.6Z" fill="#1806EB"/>
<path d="M15.192 22.624L14.6939 21.7569L14.6939 21.7569L15.192 22.624ZM17.688 20.256H18.688V16.9237L16.8532 19.7054L17.688 20.256ZM17.688 21.888L18.4304 22.558L18.688 22.2725V21.888H17.688ZM15.096 23.808L15.4746 24.7335L15.4836 24.7299L15.4924 24.7261L15.096 23.808ZM8.152 23.328L7.63053 24.1813L7.6375 24.1855L8.152 23.328ZM5.368 20.512L4.50357 21.0149L4.51051 21.0265L5.368 20.512ZM5.368 12.928L6.22409 13.4449L6.22829 13.4378L5.368 12.928ZM8.152 10.24L7.67977 9.35849L7.67315 9.3621L8.152 10.24ZM17.784 11.904L18.4866 12.6156L19.1624 11.9484L18.5309 11.2391L17.784 11.904ZM7.736 21.824L7.03344 21.1124L6.24202 21.8937L7.10276 22.598L7.736 21.824ZM9.784 23.104L9.39727 24.0262L9.41007 24.0316L9.42301 24.0366L9.784 23.104ZM7.128 21.216L6.39653 21.8979L7.10034 22.6529L7.83268 21.9255L7.128 21.216ZM16.504 11.904L17.2087 12.6135L17.9681 11.8593L17.1641 11.1528L16.504 11.904ZM14.456 10.592L14.0693 11.5142L14.0821 11.5196L14.095 11.5246L14.456 10.592ZM8.6 11.04L9.08407 11.9151L9.09026 11.9116L8.6 11.04ZM12.024 24.488C13.3157 24.488 14.5426 24.1503 15.6901 23.4911L14.6939 21.7569C13.8361 22.2497 12.951 22.488 12.024 22.488V24.488ZM15.6901 23.4911C16.8335 22.8343 17.7789 21.9344 18.5228 20.8066L16.8532 19.7054C16.2744 20.5829 15.5558 21.2617 14.6939 21.7569L15.6901 23.4911ZM16.688 20.256V21.888H18.688V20.256H16.688ZM16.9456 21.218C16.2379 22.0023 15.4878 22.5496 14.6996 22.8899L15.4924 24.7261C16.5815 24.2558 17.5595 23.523 18.4304 22.558L16.9456 21.218ZM14.7174 22.8825C13.9183 23.2094 12.9835 23.384 11.896 23.384V25.384C13.1978 25.384 14.3964 25.1746 15.4746 24.7335L14.7174 22.8825ZM11.896 23.384C10.761 23.384 9.69004 23.0846 8.6665 22.4705L7.6375 24.1855C8.96063 24.9794 10.3856 25.384 11.896 25.384V23.384ZM8.67345 22.4747C7.66109 21.8561 6.84763 21.0344 6.22549 19.9975L4.51051 21.0265C5.29637 22.3363 6.33891 23.3919 7.63055 24.1813L8.67345 22.4747ZM6.23235 20.0091C5.63608 18.9843 5.344 17.9092 5.344 16.768H3.344C3.344 18.2721 3.73459 19.6931 4.50365 21.0149L6.23235 20.0091ZM5.344 16.768C5.344 15.5053 5.64327 14.4068 6.22406 13.4449L4.51194 12.4111C3.7274 13.7105 3.344 15.172 3.344 16.768H5.344ZM6.22829 13.4378C6.81942 12.4403 7.61578 11.6716 8.63085 11.1179L7.67315 9.3621C6.34155 10.0884 5.28191 11.1117 4.50771 12.4182L6.22829 13.4378ZM8.62422 11.1215C9.66349 10.5647 10.8222 10.28 12.12 10.28V8.28C10.5165 8.28 9.02985 8.63527 7.67978 9.35852L8.62422 11.1215ZM12.12 10.28C14.0358 10.28 15.6576 11.0193 17.0371 12.5689L18.5309 11.2391C16.7958 9.29002 14.6415 8.28 12.12 8.28V10.28ZM17.0814 11.1924L7.03344 21.1124L8.43856 22.5356L18.4866 12.6156L17.0814 11.1924ZM7.10276 22.598C7.86237 23.2195 8.62696 23.7032 9.39727 24.0262L10.1707 22.1818C9.61838 21.9502 9.01763 21.5805 8.36924 21.05L7.10276 22.598ZM9.42301 24.0366C10.2176 24.3441 11.0895 24.488 12.024 24.488V22.488C11.2945 22.488 10.6731 22.3759 10.145 22.1714L9.42301 24.0366ZM4.368 16.672C4.368 18.6876 5.04516 20.4482 6.39653 21.8979L7.85947 20.5341C6.86417 19.4664 6.368 18.1977 6.368 16.672H4.368ZM7.83268 21.9255L17.2087 12.6135L15.7993 11.1945L6.42332 20.5065L7.83268 21.9255ZM17.1641 11.1528C16.3986 10.4801 15.6168 9.96905 14.817 9.65943L14.095 11.5246C14.6178 11.727 15.2014 12.0906 15.8439 12.6552L17.1641 11.1528ZM14.8427 9.6698C14.0299 9.32895 13.1026 9.176 12.088 9.176V11.176C12.9081 11.176 13.5594 11.3004 14.0693 11.5142L14.8427 9.6698ZM12.088 9.176C10.6338 9.176 9.29908 9.49942 8.10974 10.1684L9.09026 11.9116C9.94892 11.4286 10.9395 11.176 12.088 11.176V9.176ZM8.11594 10.165C6.95753 10.8058 6.03702 11.7007 5.36958 12.8378L7.09442 13.8502C7.57898 13.0246 8.23714 12.3835 9.08406 11.915L8.11594 10.165ZM5.36958 12.8378C4.6957 13.9859 4.368 15.2727 4.368 16.672H6.368C6.368 15.5966 6.6163 14.6648 7.09442 13.8502L5.36958 12.8378ZM24.7608 23.296L24.253 24.1576L24.2597 24.1614L24.7608 23.296ZM22.0088 20.512L22.8829 20.0264L21.0088 16.6529V20.512H22.0088ZM22.0088 24V25H23.0088V24H22.0088ZM20.9848 24H19.9848V25H20.9848V24ZM20.9848 -1.90735e-06V-1H19.9848V-1.90735e-06H20.9848ZM22.0088 -1.90735e-06H23.0088V-1H22.0088V-1.90735e-06ZM22.0088 13.248H21.0088L22.9125 13.6761L22.0088 13.248ZM24.6968 10.336L24.1845 9.47718L24.1845 9.47718L24.6968 10.336ZM32.3448 10.272L31.8349 11.1323L31.8419 11.1363L32.3448 10.272ZM35.1287 13.024L34.2685 13.5338L34.2685 13.5338L35.1287 13.024ZM35.1287 20.576L34.2685 20.0662L34.2685 20.0662L35.1287 20.576ZM32.3448 23.328L31.8418 22.4636L31.8349 22.4677L32.3448 23.328ZM31.8648 22.56L32.3766 23.4191L32.3832 23.4151L32.3899 23.411L31.8648 22.56ZM34.2328 20.128L33.369 19.6241L33.3656 19.6299L34.2328 20.128ZM34.2328 13.504L35.0965 13.0001L35.0965 13.0001L34.2328 13.504ZM31.8328 11.072L31.3076 11.923L31.3143 11.9271L31.3209 11.9311L31.8328 11.072ZM25.2728 11.072L24.7556 10.216L24.7476 10.221L25.2728 11.072ZM22.8408 13.536L21.9848 13.0189L21.9809 13.0255L21.977 13.0321L22.8408 13.536ZM22.8408 20.128L21.977 20.6319L21.9832 20.6426L21.9897 20.6531L22.8408 20.128ZM25.3048 22.56L24.7876 23.4159L24.7942 23.4199L24.8009 23.4238L25.3048 22.56ZM28.5368 23.352C27.4253 23.352 26.3381 23.0537 25.2618 22.4306L24.2597 24.1614C25.6154 24.9463 27.0455 25.352 28.5368 25.352V23.352ZM25.2684 22.4345C24.2189 21.816 23.4318 21.0144 22.8829 20.0264L21.1346 20.9976C21.8657 22.3136 22.9133 23.368 24.2531 24.1575L25.2684 22.4345ZM21.0088 20.512V24H23.0088V20.512H21.0088ZM22.0088 23H20.9848V25H22.0088V23ZM21.9848 24V-1.90735e-06H19.9848V24H21.9848ZM20.9848 0.999998H22.0088V-1H20.9848V0.999998ZM21.0088 -1.90735e-06V13.248H23.0088V-1.90735e-06H21.0088ZM22.9125 13.6761C23.399 12.6489 24.1539 11.8242 25.209 11.1948L24.1845 9.47718C22.8076 10.2985 21.7705 11.4151 21.105 12.8199L22.9125 13.6761ZM25.209 11.1948C26.2788 10.5567 27.3829 10.248 28.5368 10.248V8.248C27.0026 8.248 25.5467 8.6646 24.1845 9.47718L25.209 11.1948ZM28.5368 10.248C29.7507 10.248 30.8429 10.5444 31.8349 11.1323L32.8546 9.41171C31.5426 8.63425 30.0961 8.248 28.5368 8.248V10.248ZM31.8419 11.1363C32.8699 11.7345 33.674 12.5306 34.2685 13.5338L35.989 12.5142C35.2182 11.2134 34.1663 10.1749 32.8476 9.40765L31.8419 11.1363ZM34.2685 13.5338C34.8578 14.5283 35.1528 15.6104 35.1528 16.8H37.1528C37.1528 15.259 36.765 13.8237 35.989 12.5142L34.2685 13.5338ZM35.1528 16.8C35.1528 17.9896 34.8578 19.0717 34.2685 20.0662L35.989 21.0858C36.765 19.7763 37.1528 18.341 37.1528 16.8H35.1528ZM34.2685 20.0662C33.674 21.0694 32.8699 21.8655 31.8419 22.4637L32.8476 24.1923C34.1663 23.4251 35.2182 22.3866 35.989 21.0858L34.2685 20.0662ZM31.8349 22.4677C30.8429 23.0556 29.7507 23.352 28.5368 23.352V25.352C30.0961 25.352 31.5426 24.9658 32.8546 24.1883L31.8349 22.4677ZM28.6008 24.456C29.9533 24.456 31.2182 24.1092 32.3766 23.4191L31.3529 21.7009C30.5059 22.2055 29.5949 22.456 28.6008 22.456V24.456ZM32.3899 23.411C33.5313 22.7067 34.4394 21.7759 35.0999 20.6261L33.3656 19.6299C32.8741 20.4855 32.2035 21.1759 31.3396 21.709L32.3899 23.411ZM35.0965 20.6319C35.7838 19.4537 36.1287 18.1703 36.1287 16.8H34.1287C34.1287 17.8191 33.8764 18.7543 33.369 19.6241L35.0965 20.6319ZM36.1287 16.8C36.1287 15.4477 35.7821 14.1754 35.0965 13.0001L33.369 14.0079C33.8781 14.8806 34.1287 15.8056 34.1287 16.8H36.1287ZM35.0965 13.0001C34.4153 11.8322 33.4951 10.8983 32.3446 10.2129L31.3209 11.9311C32.1757 12.4403 32.8556 13.1278 33.369 14.0079L35.0965 13.0001ZM32.3579 10.221C31.198 9.50533 29.9284 9.144 28.5688 9.144V11.144C29.5558 11.144 30.4621 11.4013 31.3076 11.923L32.3579 10.221ZM28.5688 9.144C27.2094 9.144 25.9324 9.50511 24.7556 10.2161L25.7899 11.9279C26.6611 11.4016 27.5814 11.144 28.5688 11.144V9.144ZM24.7476 10.221C23.6076 10.9244 22.6844 11.8611 21.9848 13.0189L23.6967 14.0531C24.2345 13.1629 24.9326 12.4569 25.7979 11.923L24.7476 10.221ZM21.977 13.0321C21.2914 14.2074 20.9448 15.4797 20.9448 16.832H22.9448C22.9448 15.8376 23.1954 14.9126 23.7045 14.0399L21.977 13.0321ZM20.9448 16.832C20.9448 18.1843 21.2914 19.4566 21.977 20.6319L23.7045 19.6241C23.1954 18.7514 22.9448 17.8264 22.9448 16.832H20.9448ZM21.9897 20.6531C22.6932 21.7932 23.6298 22.7164 24.7876 23.4159L25.8219 21.7041C24.9317 21.1663 24.2257 20.4682 23.6918 19.6029L21.9897 20.6531ZM24.8009 23.4238C25.9761 24.1094 27.2484 24.456 28.6008 24.456V22.456C27.6064 22.456 26.6814 22.2053 25.8086 21.6962L24.8009 23.4238ZM39.8078 5.984L39.1006 6.69111L39.1175 6.70793L39.1351 6.72394L39.8078 5.984ZM39.8078 4.416L39.1351 3.67606L39.1175 3.69206L39.1006 3.70889L39.8078 4.416ZM41.3758 4.416L40.6686 5.12311L40.6855 5.13993L40.7031 5.15594L41.3758 4.416ZM41.3758 5.984L40.7031 5.24406L40.6855 5.26007L40.6686 5.27689L41.3758 5.984ZM40.0958 9.6V8.6H39.0958V9.6H40.0958ZM41.1198 9.6H42.1198V8.6H41.1198V9.6ZM41.1198 24V25H42.1198V24H41.1198ZM40.0958 24H39.0958V25H40.0958V24ZM40.6078 5.304C40.5742 5.304 40.5435 5.30137 40.4804 5.24406L39.1351 6.72394C39.5414 7.09329 40.044 7.304 40.6078 7.304V5.304ZM40.5149 5.27689C40.506 5.26799 40.5016 5.26205 40.4998 5.2593C40.498 5.25665 40.4971 5.25472 40.4962 5.25261C40.4952 5.25015 40.4878 5.23128 40.4878 5.184H38.4878C38.4878 5.75136 38.6875 6.27798 39.1006 6.69111L40.5149 5.27689ZM40.4878 5.184C40.4878 5.16909 40.4891 5.16049 40.4898 5.15685C40.4901 5.15492 40.4904 5.15381 40.4906 5.15335C40.4907 5.15288 40.4908 5.15269 40.4908 5.15261C40.4909 5.15254 40.491 5.1522 40.4914 5.15151C40.4918 5.15081 40.4925 5.14943 40.494 5.14734C40.4967 5.14329 40.5029 5.13506 40.5149 5.12311L39.1006 3.70889C38.7019 4.10762 38.4878 4.61711 38.4878 5.184H40.4878ZM40.4804 5.15594C40.5435 5.09862 40.5742 5.096 40.6078 5.096V3.096C40.044 3.096 39.5414 3.30671 39.1351 3.67606L40.4804 5.15594ZM40.6078 5.096C40.6227 5.096 40.6313 5.09731 40.6349 5.09801C40.6368 5.09837 40.6379 5.09868 40.6384 5.09883C40.6389 5.09896 40.6391 5.09904 40.6391 5.09908C40.6392 5.09911 40.6395 5.09925 40.6402 5.09962C40.6409 5.1 40.6423 5.1008 40.6444 5.10223C40.6485 5.10499 40.6567 5.11116 40.6686 5.12311L42.0829 3.70889C41.6841 3.31016 41.1746 3.096 40.6078 3.096V5.096ZM40.7031 5.15594C40.7187 5.17016 40.7266 5.17979 40.7298 5.184C40.7327 5.18798 40.7323 5.18812 40.7307 5.18465C40.729 5.18108 40.7279 5.17738 40.7274 5.17496C40.7269 5.17271 40.7278 5.17518 40.7278 5.184H42.7278C42.7278 4.58453 42.477 4.0657 42.0484 3.67606L40.7031 5.15594ZM40.7278 5.184C40.7278 5.20269 40.7261 5.21343 40.7252 5.21788C40.7243 5.22209 40.7238 5.22266 40.7244 5.22126C40.7251 5.21985 40.7252 5.22009 40.7233 5.22264C40.7213 5.22537 40.7155 5.23274 40.7031 5.24406L42.0484 6.72394C42.4937 6.31914 42.7278 5.78285 42.7278 5.184H40.7278ZM40.6686 5.27689C40.6567 5.28884 40.6485 5.29501 40.6444 5.29777C40.6423 5.2992 40.6409 5.3 40.6402 5.30037C40.6395 5.30075 40.6392 5.30089 40.6391 5.30092C40.6391 5.30095 40.6389 5.30103 40.6384 5.30117C40.6379 5.30131 40.6368 5.30162 40.6349 5.30199C40.6313 5.30269 40.6227 5.304 40.6078 5.304V7.304C41.1746 7.304 41.6841 7.08984 42.0829 6.69111L40.6686 5.27689ZM40.0958 10.6H41.1198V8.6H40.0958V10.6ZM40.1198 9.6V24H42.1198V9.6H40.1198ZM41.1198 23H40.0958V25H41.1198V23ZM41.0958 24V9.6H39.0958V24H41.0958ZM48.835 23.328L48.3252 24.1883L48.3321 24.1923L48.835 23.328ZM46.083 20.576L46.9433 20.0662L46.9433 20.0662L46.083 20.576ZM46.083 13.024L45.2227 12.5142L45.2227 12.5142L46.083 13.024ZM48.835 10.272L48.3321 9.40762L48.3252 9.41171L48.835 10.272ZM56.515 10.336L56.0027 11.1949L56.014 11.2014L56.515 10.336ZM59.203 13.12L58.3086 13.5672L60.203 13.12H59.203ZM59.203 -1.90735e-06V-1H58.203V-1.90735e-06H59.203ZM60.227 -1.90735e-06H61.227V-1H60.227V-1.90735e-06ZM60.227 24V25H61.227V24H60.227ZM59.203 24H58.203V25H59.203V24ZM59.203 20.512H60.203V16.6529L58.3288 20.0264L59.203 20.512ZM56.419 23.296L55.9179 22.4305L55.9113 22.4345L56.419 23.296ZM55.907 22.56L56.4188 23.4191L56.4241 23.4159L55.907 22.56ZM58.339 20.128L57.4831 19.6109L57.4799 19.6162L58.339 20.128ZM58.339 13.536L57.4752 14.0399L57.4791 14.0465L57.4831 14.0531L58.339 13.536ZM55.907 11.072L55.3819 11.9231L55.3899 11.9279L55.907 11.072ZM49.379 11.072L49.8908 11.9311L49.8975 11.9271L49.9041 11.923L49.379 11.072ZM46.947 20.128L46.0754 20.6183L46.0815 20.6291L46.0879 20.6398L46.947 20.128ZM49.347 22.56L48.8219 23.411L48.8324 23.4175L48.8431 23.4238L49.347 22.56ZM52.675 23.352C51.461 23.352 50.3551 23.0555 49.3379 22.4637L48.3321 24.1923C49.6616 24.9658 51.1156 25.352 52.675 25.352V23.352ZM49.3448 22.4677C48.3372 21.8706 47.5404 21.0738 46.9433 20.0662L45.2227 21.0858C45.9909 22.3822 47.0288 23.4201 48.3252 24.1883L49.3448 22.4677ZM46.9433 20.0662C46.3539 19.0717 46.059 17.9896 46.059 16.8H44.059C44.059 18.341 44.4467 19.7763 45.2227 21.0858L46.9433 20.0662ZM46.059 16.8C46.059 15.6104 46.3539 14.5283 46.9433 13.5338L45.2227 12.5142C44.4467 13.8237 44.059 15.259 44.059 16.8H46.059ZM46.9433 13.5338C47.5404 12.5262 48.3372 11.7294 49.3448 11.1323L48.3252 9.41171C47.0288 10.1799 45.9909 11.2178 45.2227 12.5142L46.9433 13.5338ZM49.3379 11.1363C50.3551 10.5445 51.461 10.248 52.675 10.248V8.248C51.1156 8.248 49.6616 8.63416 48.3321 9.40765L49.3379 11.1363ZM52.675 10.248C53.8288 10.248 54.933 10.5567 56.0027 11.1948L57.0273 9.47718C55.665 8.6646 54.2092 8.248 52.675 8.248V10.248ZM56.014 11.2014C57.0768 11.8168 57.8279 12.6059 58.3086 13.5672L60.0974 12.6728C59.4261 11.3301 58.3852 10.2632 57.016 9.47057L56.014 11.2014ZM60.203 13.12V-1.90735e-06H58.203V13.12H60.203ZM59.203 0.999998H60.227V-1H59.203V0.999998ZM59.227 -1.90735e-06V24H61.227V-1.90735e-06H59.227ZM60.227 23H59.203V25H60.227V23ZM60.203 24V20.512H58.203V24H60.203ZM58.3288 20.0264C57.7825 21.0098 56.9883 21.8109 55.918 22.4306L56.92 24.1614C58.2817 23.3731 59.3435 22.3182 60.0772 20.9976L58.3288 20.0264ZM55.9113 22.4345C54.86 23.054 53.786 23.352 52.675 23.352V25.352C54.1667 25.352 55.5887 24.946 56.9267 24.1575L55.9113 22.4345ZM52.643 24.456C53.9955 24.456 55.2605 24.1092 56.4188 23.4191L55.3952 21.7009C54.5482 22.2055 53.6372 22.456 52.643 22.456V24.456ZM56.4241 23.4159C57.585 22.7146 58.5146 21.7871 59.1981 20.6398L57.4799 19.6162C56.9688 20.4742 56.277 21.1681 55.3899 21.7041L56.4241 23.4159ZM59.1949 20.6451C59.9059 19.4683 60.267 18.1913 60.267 16.832H58.267C58.267 17.8193 58.0094 18.7397 57.4831 19.6109L59.1949 20.6451ZM60.267 16.832C60.267 15.4727 59.9059 14.1957 59.1949 13.0189L57.4831 14.0531C58.0094 14.9243 58.267 15.8447 58.267 16.832H60.267ZM59.2028 13.0321C58.5204 11.8622 57.5899 10.9204 56.4241 10.2161L55.3899 11.9279C56.2721 12.4609 56.963 13.1617 57.4752 14.0399L59.2028 13.0321ZM56.4321 10.221C55.2723 9.50533 54.0026 9.144 52.643 9.144V11.144C53.6301 11.144 54.5364 11.4013 55.3819 11.923L56.4321 10.221ZM52.643 9.144C51.2834 9.144 50.0137 9.50533 48.8539 10.221L49.9041 11.923C50.7496 11.4013 51.6559 11.144 52.643 11.144V9.144ZM48.8672 10.2129C47.7166 10.8983 46.7965 11.8322 46.1152 13.0001L47.8428 14.0079C48.3562 13.1278 49.036 12.4403 49.8908 11.9311L48.8672 10.2129ZM46.1152 13.0001C45.4296 14.1754 45.083 15.4477 45.083 16.8H47.083C47.083 15.8056 47.3337 14.8806 47.8428 14.0079L46.1152 13.0001ZM45.083 16.8C45.083 18.1634 45.4138 19.442 46.0754 20.6183L47.8186 19.6377C47.3282 18.766 47.083 17.826 47.083 16.8H45.083ZM46.0879 20.6398C46.7684 21.7821 47.6836 22.7087 48.8219 23.411L49.8721 21.709C49.0051 21.174 48.3202 20.4792 47.8061 19.6162L46.0879 20.6398ZM48.8431 23.4238C50.0184 24.1094 51.2907 24.456 52.643 24.456V22.456C51.6486 22.456 50.7236 22.2053 49.8509 21.6962L48.8431 23.4238ZM74.442 22.624L73.9439 21.7569L73.9439 21.7569L74.442 22.624ZM76.938 20.256H77.938V16.9237L76.1032 19.7054L76.938 20.256ZM76.938 21.888L77.6804 22.558L77.938 22.2725V21.888H76.938ZM74.346 23.808L74.7246 24.7335L74.7336 24.7299L74.7424 24.7261L74.346 23.808ZM67.402 23.328L66.8805 24.1813L66.8875 24.1855L67.402 23.328ZM64.618 20.512L63.7536 21.0149L63.7605 21.0265L64.618 20.512ZM64.618 12.928L65.4741 13.4449L65.4783 13.4378L64.618 12.928ZM67.402 10.24L66.9298 9.35849L66.9231 9.3621L67.402 10.24ZM77.034 11.904L77.7366 12.6156L78.4124 11.9484L77.7809 11.2391L77.034 11.904ZM66.986 21.824L66.2834 21.1124L65.492 21.8937L66.3528 22.598L66.986 21.824ZM69.034 23.104L68.6473 24.0262L68.6601 24.0316L68.673 24.0366L69.034 23.104ZM66.378 21.216L65.6465 21.8979L66.3503 22.6529L67.0827 21.9255L66.378 21.216ZM75.754 11.904L76.4587 12.6135L77.2181 11.8593L76.4141 11.1528L75.754 11.904ZM73.706 10.592L73.3193 11.5142L73.3321 11.5196L73.345 11.5246L73.706 10.592ZM67.85 11.04L68.3341 11.9151L68.3403 11.9116L67.85 11.04ZM71.274 24.488C72.5657 24.488 73.7926 24.1503 74.9401 23.4911L73.9439 21.7569C73.0861 22.2497 72.201 22.488 71.274 22.488V24.488ZM74.9401 23.4911C76.0835 22.8343 77.0289 21.9344 77.7728 20.8066L76.1032 19.7054C75.5244 20.5829 74.8058 21.2617 73.9439 21.7569L74.9401 23.4911ZM75.938 20.256V21.888H77.938V20.256H75.938ZM76.1956 21.218C75.4879 22.0023 74.7378 22.5496 73.9496 22.8899L74.7424 24.7261C75.8315 24.2558 76.8095 23.523 77.6804 22.558L76.1956 21.218ZM73.9674 22.8825C73.1683 23.2094 72.2335 23.384 71.146 23.384V25.384C72.4478 25.384 73.6464 25.1746 74.7246 24.7335L73.9674 22.8825ZM71.146 23.384C70.011 23.384 68.94 23.0846 67.9165 22.4705L66.8875 24.1855C68.2106 24.9794 69.6356 25.384 71.146 25.384V23.384ZM67.9235 22.4747C66.9111 21.8561 66.0976 21.0344 65.4755 19.9975L63.7605 21.0265C64.5464 22.3363 65.5889 23.3919 66.8806 24.1813L67.9235 22.4747ZM65.4823 20.0091C64.8861 18.9843 64.594 17.9092 64.594 16.768H62.594C62.594 18.2721 62.9846 19.6931 63.7537 21.0149L65.4823 20.0091ZM64.594 16.768C64.594 15.5053 64.8933 14.4068 65.4741 13.4449L63.7619 12.4111C62.9774 13.7105 62.594 15.172 62.594 16.768H64.594ZM65.4783 13.4378C66.0694 12.4403 66.8658 11.6716 67.8809 11.1179L66.9231 9.3621C65.5916 10.0884 64.5319 11.1117 63.7577 12.4182L65.4783 13.4378ZM67.8742 11.1215C68.9135 10.5647 70.0722 10.28 71.37 10.28V8.28C69.7665 8.28 68.2798 8.63527 66.9298 9.35852L67.8742 11.1215ZM71.37 10.28C73.2858 10.28 74.9076 11.0193 76.2871 12.5689L77.7809 11.2391C76.0458 9.29002 73.8915 8.28 71.37 8.28V10.28ZM76.3314 11.1924L66.2834 21.1124L67.6886 22.5356L77.7366 12.6156L76.3314 11.1924ZM66.3528 22.598C67.1124 23.2195 67.877 23.7032 68.6473 24.0262L69.4207 22.1818C68.8684 21.9502 68.2676 21.5805 67.6192 21.05L66.3528 22.598ZM68.673 24.0366C69.4676 24.3441 70.3395 24.488 71.274 24.488V22.488C70.5445 22.488 69.9231 22.3759 69.395 22.1714L68.673 24.0366ZM63.618 16.672C63.618 18.6876 64.2952 20.4482 65.6465 21.8979L67.1095 20.5341C66.1142 19.4664 65.618 18.1977 65.618 16.672H63.618ZM67.0827 21.9255L76.4587 12.6135L75.0493 11.1945L65.6733 20.5065L67.0827 21.9255ZM76.4141 11.1528C75.6486 10.4801 74.8668 9.96905 74.067 9.65943L73.345 11.5246C73.8678 11.727 74.4514 12.0906 75.0939 12.6552L76.4141 11.1528ZM74.0927 9.6698C73.2799 9.32895 72.3526 9.176 71.338 9.176V11.176C72.1581 11.176 72.8094 11.3004 73.3193 11.5142L74.0927 9.6698ZM71.338 9.176C69.8838 9.176 68.5491 9.49942 67.3597 10.1684L68.3403 11.9116C69.1989 11.4286 70.1895 11.176 71.338 11.176V9.176ZM67.3659 10.165C66.2075 10.8058 65.287 11.7007 64.6196 12.8378L66.3444 13.8502C66.829 13.0246 67.4871 12.3835 68.3341 11.915L67.3659 10.165ZM64.6196 12.8378C63.9457 13.9859 63.618 15.2727 63.618 16.672H65.618C65.618 15.5966 65.8663 14.6648 66.3444 13.8502L64.6196 12.8378ZM80.2348 9.6V8.6H79.2348V9.6H80.2348ZM81.2588 9.6H82.2588V8.6H81.2588V9.6ZM81.2588 12.928H80.2588L82.1846 13.3059L81.2588 12.928ZM83.1148 10.464L82.5315 9.65161L82.5216 9.65894L83.1148 10.464ZM87.9468 9.984H88.9468V9.31088L88.3231 9.05753L87.9468 9.984ZM87.9468 11.168L87.3424 11.9647L88.9468 13.1818V11.168H87.9468ZM83.6268 11.168L83.0834 10.3284L83.0721 10.3359L83.6268 11.168ZM81.8988 13.056L81.0291 12.5624L81.024 12.5714L81.019 12.5805L81.8988 13.056ZM81.2588 24V25H82.2588V24H81.2588ZM80.2348 24H79.2348V25H80.2348V24ZM80.2348 10.6H81.2588V8.6H80.2348V10.6ZM80.2588 9.6V12.928H82.2588V9.6H80.2588ZM82.1846 13.3059C82.5504 12.4096 83.0627 11.7445 83.7079 11.2691L82.5216 9.65894C81.5454 10.3782 80.8204 11.3557 80.3329 12.5501L82.1846 13.3059ZM83.698 11.2763C84.3563 10.8037 85.09 10.568 85.9308 10.568V8.568C84.6808 8.568 83.5372 8.92964 82.5315 9.65168L83.698 11.2763ZM85.9308 10.568C86.4491 10.568 86.9936 10.6762 87.5704 10.9105L88.3231 9.05753C87.5346 8.73718 86.7351 8.568 85.9308 8.568V10.568ZM86.9468 9.984V11.168H88.9468V9.984H86.9468ZM88.5511 10.3713C87.7607 9.77165 86.8556 9.464 85.8668 9.464V11.464C86.4139 11.464 86.8955 11.6257 87.3424 11.9647L88.5511 10.3713ZM85.8668 9.464C84.8826 9.464 83.9498 9.76787 83.0835 10.3284L84.17 12.0076C84.7544 11.6295 85.3149 11.464 85.8668 11.464V9.464ZM83.0721 10.3359C82.2287 10.8982 81.5484 11.6473 81.0291 12.5624L82.7684 13.5496C83.1451 12.886 83.6168 12.3765 84.1815 12L83.0721 10.3359ZM81.019 12.5805C80.5135 13.5157 80.2588 14.5217 80.2588 15.584H82.2588C82.2588 14.8543 82.4306 14.175 82.7785 13.5315L81.019 12.5805ZM80.2588 15.584V24H82.2588V15.584H80.2588ZM81.2588 23H80.2348V25H81.2588V23ZM81.2348 24V9.6H79.2348V24H81.2348Z" fill="#0F0F0F"/>
</g>
<defs>
<filter id="filter0_d_1_3" x="0.343994" y="0" width="91.6028" height="32.384" filterUnits="userSpaceOnUse" color-interpolation-filters="sRGB">
<feFlood flood-opacity="0" result="BackgroundImageFix"/>
<feColorMatrix in="SourceAlpha" type="matrix" values="0 0 0 0 0 0 0 0 0 0 0 0 0 0 0 0 0 0 127 0" result="hardAlpha"/>
<feOffset dy="4"/>
<feGaussianBlur stdDeviation="2"/>
<feComposite in2="hardAlpha" operator="out"/>
<feColorMatrix type="matrix" values="0 0 0 0 0 0 0 0 0 0 0 0 0 0 0 0 0 0 0.25 0"/>
<feBlend mode="normal" in2="BackgroundImageFix" result="effect1_dropShadow_1_3"/>
<feBlend mode="normal" in="SourceGraphic" in2="effect1_dropShadow_1_3" result="shape"/>
</filter>
</defs>
</svg>
